<svg xmlns="http://www.w3.org/2000/svg" viewBox="0 0 516.21 630.79"><defs><style>.cls-1{fill:#dc911b;}</style></defs><title>Asset 2</title><g id="Layer_2" data-name="Layer 2"><g id="Layer_1-2" data-name="Layer 1"><polygon class="cls-1" points="435.53 67.88 415.59 86.9 488.6 115.66 453.85 353 431.81 370.61 440.99 395.28 477.15 366.38 516.21 99.66 435.53 67.88"/><path class="cls-1" d="M64.67,299.16,45,165h0s-14.93-6.84-28.6-22.76L38.94,296a196.23,196.23,0,0,1,25.73,3.13"/><path class="cls-1" d="M458.2,466.35q-7.9-1.67-13.7-15l-13.67-35.5-3.68-9.56-4.85-12.59-4.57-11.88L372.24,263.7a48.58,48.58,0,0,1-3.74-17.86q-.42-10.38,8.72-17.86a290,290,0,0,0,36.55-32q18.25-18.69,34.88-49.42a57.45,57.45,0,0,1-25.33,4.15A112.42,112.42,0,0,1,398,146.18q-12.47-3.74-24.92-8.72t-25.75-9.14q-19.92,11.64-32,27.41t-17,39.86V61.05q14.12,2.49,28.66,6.23a183.79,183.79,0,0,1,27.82,9.55q6.63,3.33,6.64,9.13t-6.23,11.22q-6.22,5.4-18.27,9.55t-28.65,4.15q20.74,5.82,38.62.83a113.16,113.16,0,0,0,33.64-15.78A204.4,204.4,0,0,0,400,80.77l.06,0,19.82-19h0q9.36-9,18.74-17.29-5.82-9.13-22-16.61A219.52,219.52,0,0,0,382.2,15.37q-18.27-5-34.88-7.89T324.07,4.57q-10,5.73-20,11.52L263.2,0,174.86,34.8q-15.24-4.93-30.19-10.71Q126.4,17,109.79,10.8T78.23,4.57q-11.64,0-30.73,3.32T20.1,20.35Q30.89,32,27.15,44T18.43,76.83a43.61,43.61,0,0,0-1.58,6.46,66.65,66.65,0,0,0-.91,11.39c0,.91,0,1.8,0,2.7a91.25,91.25,0,0,0,2,17.24,67.48,67.48,0,0,0,6.23,17.44,23.9,23.9,0,0,0,11.62,11.21,47.6,47.6,0,0,1-11.21-21.59,46,46,0,0,1,.83-24.5c.44-1.42,1-2.8,1.54-4.16a46.44,46.44,0,0,1,6.86-11.37A52,52,0,0,1,39.2,76q10-9.14,26.58-12.46a108.19,108.19,0,0,1,21.44-.95h0a54.48,54.48,0,0,1,13.07,1.57c.78.19,1.55.4,2.31.61a67.53,67.53,0,0,1,10.91,3.75,52.88,52.88,0,0,1,15.88,10.72l.25.23h0c.89.89,1.75,1.79,2.57,2.75q7.47,8.72,7.47,22-11.64-10-30.31-15.79L107.92,88h0c-48.52-14.43-60.43,4.21-63.26,16.33-.26,1.12-.44,2.18-.57,3.16a34.55,34.55,0,0,0-.21,5.74,62.93,62.93,0,0,0,2.76,15.07q-.37-10.35,2.08-17h0l.12-.25a18.82,18.82,0,0,1,4.09-6.64c6.68-7.59,16.45-7.18,25-4.6a68.68,68.68,0,0,1,17.58,8.6h0a108.89,108.89,0,0,1,21.8,19.45A87.79,87.79,0,0,1,137.2,165.7q-18.27-7.48-33.64-4.57T79.06,174q-9.15,10-11.21,25.33t5.4,32q-3.33-22.42,6.64-33.64t23.26-9.13q13.27,2.07,24.91,16.6t11.63,42.78v98.83q-23.26-10-51.08-22a150.15,150.15,0,0,0-20.07-7.1l-1.21-.32a159.26,159.26,0,0,0-15.64-3.05,101.46,101.46,0,0,0-10.19-.75c-1.88,0-3.76,0-5.63,0A28.82,28.82,0,0,1,37.12,331a90.11,90.11,0,0,1-6.64,18.69A126.81,126.81,0,0,1,20.1,367.51a176.78,176.78,0,0,0-10,15.78Q-3.16,408.2,1,431.05T20.1,468.84Q35,483.78,57.88,487.94t46.93-10q-27.4,12.46-46.93,5.82T28,461.36a71.72,71.72,0,0,1-11.63-35.71q-1.25-19.93,8.72-34.88t22-14.12a74.88,74.88,0,0,1,21.5,5.21h0l.18.08c1.74.67,3.5,1.39,5.31,2.19q11.63,5.82,32,14.12t44,19.11c2.25,1,4.51,2.07,6.76,3.11l.26.11h0l.08.05q20.23,9.35,41.06,19.57a403.22,403.22,0,0,1,44,24.91,248.42,248.42,0,0,1,32.81,25.33c1.08,1,2.09,2,3.05,3L263.2,505.36,208,461.28l-84.44-35.49L263.2,537.36l99.7-79.67-9.43-24.47-48.14,38.47q12.24-15.54,22.89-31.92a75.21,75.21,0,0,0,12-27,98.86,98.86,0,0,0,1.25-30.32q-3.33,17.44-8.31,25.75T322,419a19.29,19.29,0,0,1-12.45.83,58.49,58.49,0,0,1-11.22-4.16V340.94q0-19.94,4.15-34.47a85.56,85.56,0,0,1,11.63-25.33l45.68,120.43q3.78,9.76,7.8,20.37l0,.05q4.39,11.58,9.07,24.19l.15.38h0c1.5,4,3,8.13,4.55,12.31q11.63,31.56,15.79,59,4.14,29.89-8.31,47.75T359.78,588q-16.62,4.54-32.39-4.57t-18.27-31.56Q305.79,566,312.86,576a126.87,126.87,0,0,0,16.19,18.68,176,176,0,0,1,15.78,17q6.65,8.29,1.66,19.1,16.61-6.66,34.47-31.56t39.45-62.29q12.46-18.27,26.16-35.71t27.82-34.88a39.77,39.77,0,0,1-16.19,0M285,57.73V367.51a15,15,0,0,1-6.07-8.3,36.86,36.86,0,0,1-1.4-10l.83-292.35a14.05,14.05,0,0,1,3.32.42,13,13,0,0,0,3.32.42m-68.1,323.9Q191,370.85,163.45,357.55L210.29,331q-6.34-3.32-8.17-9.14a39,39,0,0,1-1.8-11.62l.41-113.68c10.66,35.53,15,70.74,16.2,82.26ZM215.27,80.57a38.17,38.17,0,0,1,1.66,11.21v59.5c-6-29.32-11.62-51.83-15.79-67.2V81q0-14.12,4.57-21.59A86.59,86.59,0,0,1,217.29,45L263.2,26.87l13.25,5.22-10.52,6.12q-29.09,17-58.13,33.64a15.25,15.25,0,0,1,7.47,8.72m51.91,322.24q-9.56-3.74-21.18-8.72l39-22.42v38.2q-8.31-3.31-17.85-7.06m85.13-179.39a259.52,259.52,0,0,0-23.26,18.27A125.68,125.68,0,0,0,310,262.87a72.05,72.05,0,0,0-11.63,27.4V232.14q0-15,8.31-22.84a38.22,38.22,0,0,1,20.35-10,80.45,80.45,0,0,1,25.74,0,118.05,118.05,0,0,1,24.5,6.23q-12.45,9.15-24.91,17.86"/></g></g></svg>